<?xml version="1.0" standalone="no"?>
<!DOCTYPE svg PUBLIC "-//W3C//DTD SVG 20010904//EN"
 "http://www.w3.org/TR/2001/REC-SVG-20010904/DTD/svg10.dtd">
<svg version="1.0" xmlns="http://www.w3.org/2000/svg"
 width="16.000000pt" height="16.000000pt" viewBox="0 0 16.000000 16.000000"
 preserveAspectRatio="xMidYMid meet">
<metadata>
Created by potrace 1.11, written by Peter Selinger 2001-2013
</metadata>
<g transform="translate(0.000000,16.000000) scale(0.006154,-0.006154)"
fill="#000000" stroke="none">
<path d="M1314 2515 c-4 -9 -15 -13 -30 -11 -13 3 -24 0 -24 -5 0 -6 -4 -8 -9
-5 -5 3 -11 -1 -15 -9 -3 -8 -11 -15 -18 -15 -16 0 -59 -102 -65 -155 -3 -22
-10 -46 -17 -54 -9 -12 -8 -13 3 -6 16 9 9 -7 -18 -40 -15 -19 -15 -19 3 -5
18 14 19 13 13 -3 -4 -10 -7 -28 -7 -40 0 -18 -2 -19 -10 -7 -7 11 -8 5 -3
-20 6 -33 5 -34 -13 -20 -15 11 -16 11 -6 0 13 -15 17 -64 5 -57 -5 3 -9 -8
-9 -25 -1 -17 -7 -34 -15 -39 -12 -7 -12 -9 0 -9 11 0 9 -5 -5 -21 -10 -12
-18 -23 -16 -25 7 -10 -71 -113 -81 -107 -6 3 -7 1 -3 -5 3 -6 -3 -16 -14 -22
-11 -6 -18 -15 -15 -21 4 -5 2 -9 -4 -9 -5 0 -16 -6 -23 -13 -36 -35 -61 -47
-77 -34 -14 11 -14 10 -2 -5 12 -16 9 -22 -11 -19 -5 0 -8 -4 -8 -10 0 -5 -4
-7 -10 -4 -5 3 -10 1 -10 -5 0 -6 -4 -8 -10 -5 -5 3 -10 2 -10 -2 0 -13 -80
-44 -92 -37 -7 4 -8 2 -4 -4 10 -16 -6 -15 -24 1 -12 10 -12 9 -1 -5 11 -14 8
-19 -17 -32 -16 -8 -32 -12 -36 -9 -3 4 -6 1 -6 -6 0 -7 -6 -11 -14 -8 -8 3
-17 -1 -20 -8 -3 -8 -14 -12 -26 -10 -11 2 -19 1 -16 -3 2 -4 -13 -17 -35 -29
-22 -12 -36 -16 -32 -10 3 6 -9 -1 -29 -16 -19 -15 -38 -24 -41 -20 -4 3 -7 2
-7 -4 0 -6 -19 -22 -42 -36 -24 -14 -61 -43 -83 -64 -48 -47 -125 -145 -125
-161 0 -6 -10 -21 -22 -33 -13 -12 -16 -18 -8 -14 12 7 13 6 3 -7 -7 -8 -9
-18 -5 -23 4 -4 -4 -5 -18 -2 -22 5 -23 5 -8 -7 10 -7 15 -16 11 -20 -4 -3 -9
-17 -11 -29 -2 -12 -5 -29 -7 -37 -2 -8 -4 -25 -4 -37 -1 -13 -7 -23 -15 -23
-8 0 -18 -4 -21 -10 -4 -6 1 -7 10 -3 13 4 16 1 13 -13 -2 -10 -10 -18 -17
-16 -7 1 -10 -2 -6 -8 3 -6 10 -8 14 -6 10 6 8 -35 -2 -50 -3 -6 -3 -14 0 -18
11 -11 12 -36 2 -36 -6 0 -7 -4 -4 -10 3 -5 7 -32 9 -58 2 -27 6 -54 10 -60 4
-7 4 -16 1 -22 -3 -6 -1 -10 6 -10 7 0 10 -11 7 -29 -2 -17 0 -29 6 -28 5 1
12 -7 14 -17 2 -11 10 -26 18 -34 8 -7 12 -18 9 -23 -4 -5 -2 -9 3 -9 10 0 37
-50 33 -63 -1 -5 2 -6 6 -4 5 2 17 -5 28 -16 11 -11 13 -17 5 -13 -8 5 0 -4
18 -19 18 -15 29 -31 26 -37 -4 -7 -2 -8 4 -4 7 4 23 -4 37 -18 14 -15 28 -26
32 -26 11 0 68 -54 65 -62 -1 -5 3 -6 9 -3 11 8 54 -11 77 -33 12 -11 21 -14
38 -11 3 0 15 -6 27 -14 12 -7 34 -17 49 -21 15 -3 26 -12 24 -19 -1 -6 -1 -9
1 -4 7 11 33 8 33 -4 0 -5 4 -8 9 -5 5 4 12 0 14 -6 4 -10 6 -10 6 0 1 9 6 10
20 3 10 -6 21 -7 25 -4 3 3 6 2 6 -3 0 -5 14 -11 32 -12 18 -2 41 -10 52 -20
11 -9 16 -11 12 -5 -4 8 -1 13 8 13 9 0 16 -4 16 -8 0 -5 15 -7 33 -5 24 3 29
2 17 -6 -8 -6 -10 -11 -5 -11 6 0 16 5 23 12 7 7 12 8 12 2 0 -5 27 -7 62 -6
59 4 61 3 48 -15 -14 -17 -14 -17 5 -2 16 13 38 15 110 12 50 -3 92 -9 94 -14
1 -6 10 -2 18 8 14 17 14 17 9 -1 -5 -16 -4 -17 8 -7 10 8 44 11 100 9 53 -2
86 1 86 7 0 6 5 3 10 -5 5 -8 10 -10 10 -3 0 7 17 10 50 8 28 -2 50 1 50 6 0
5 10 7 22 5 12 -1 38 0 58 4 90 19 101 20 94 7 -6 -9 -5 -9 7 0 8 6 26 14 39
17 14 2 40 8 59 12 28 6 33 4 27 -7 -4 -8 -1 -6 8 5 8 10 19 15 25 12 5 -4 12
-2 16 4 3 5 15 10 26 10 13 0 18 -4 13 -12 -4 -7 -3 -8 5 -4 6 4 9 11 6 16 -8
12 40 24 56 14 7 -4 9 -3 6 3 -8 12 20 26 34 17 5 -3 9 0 9 6 0 7 6 10 12 8 7
-3 19 1 26 9 8 7 18 11 23 8 5 -4 9 0 9 7 0 9 3 9 10 -2 9 -13 10 -13 10 0 0
8 18 25 39 36 36 20 41 20 57 5 17 -15 17 -15 3 3 -11 15 -11 20 -1 24 7 2 19
10 26 18 8 8 17 14 20 14 3 0 24 18 46 40 22 22 45 40 51 40 6 0 8 4 5 9 -3 4
6 19 19 31 14 13 25 29 25 37 0 7 5 13 10 13 6 0 10 7 10 15 0 8 5 15 11 15 5
0 8 4 4 9 -3 5 1 16 9 24 8 8 12 18 8 22 -4 5 1 5 10 2 10 -3 20 -1 24 5 4 6
3 8 -4 4 -18 -11 -24 13 -8 30 18 17 21 28 7 19 -6 -3 -6 7 -1 27 6 17 15 35
22 40 11 6 11 8 0 8 -14 0 -7 45 12 69 6 8 6 12 1 9 -7 -4 -10 13 -9 45 0 29
-3 59 -7 68 -5 9 -3 21 4 29 9 10 9 11 -2 5 -11 -6 -13 -2 -9 18 3 17 1 24 -5
20 -6 -4 -8 0 -4 10 3 10 2 17 -3 17 -5 0 -7 9 -5 20 2 11 0 20 -6 20 -5 0 -9
5 -9 11 0 5 4 8 9 4 5 -3 13 -1 16 5 4 6 3 10 -2 9 -19 -3 -33 2 -33 12 0 5 6
7 13 4 6 -4 5 -1 -4 7 -15 12 -35 58 -30 67 2 2 -2 7 -7 10 -6 3 -12 13 -14
21 -2 8 -11 21 -20 28 -10 7 -18 19 -18 27 0 14 -52 77 -97 118 -13 11 -23 27
-23 34 0 7 -6 12 -12 10 -7 -1 -12 4 -11 10 2 7 -3 12 -10 10 -6 -1 -11 5 -9
13 2 8 0 12 -3 8 -9 -9 -52 13 -80 39 -11 11 -35 26 -52 33 -18 8 -33 18 -33
22 0 5 -7 8 -15 8 -8 0 -15 4 -15 10 0 5 -6 7 -14 4 -7 -3 -20 1 -27 8 -8 7
-20 13 -26 14 -38 3 -44 5 -40 12 3 4 -8 8 -24 9 -15 1 -41 10 -56 20 -15 10
-28 16 -30 13 -1 -3 -11 2 -21 11 -10 8 -23 14 -30 11 -7 -2 -12 1 -12 6 0 5
-10 12 -22 15 -19 5 -20 8 -8 24 12 15 12 16 0 6 -17 -15 -50 1 -50 25 0 10
-3 13 -8 6 -4 -6 -20 3 -42 24 -19 19 -29 32 -22 28 6 -4 12 -2 12 3 0 6 -9
11 -20 11 -11 0 -20 7 -20 15 0 8 -4 15 -10 15 -5 0 -10 5 -10 10 0 6 -9 19
-20 30 -11 11 -20 27 -20 35 0 8 -4 15 -9 15 -14 0 -20 37 -7 50 8 8 7 10 -6
5 -17 -7 -24 9 -19 39 1 4 -2 13 -7 20 -5 6 -9 20 -10 31 -3 31 -7 49 -15 63
-5 6 -6 12 -3 12 2 0 1 13 -4 29 -6 22 -4 33 9 45 15 16 15 17 -3 10 -16 -6
-18 -4 -14 19 3 15 2 27 -2 27 -5 0 -7 14 -6 31 1 16 -1 32 -5 35 -4 2 -6 13
-4 24 2 12 0 18 -6 15 -9 -6 -13 8 -10 34 2 7 -2 10 -8 6 -6 -3 -11 -1 -11 5
0 14 -25 40 -39 40 -6 0 -11 4 -11 9 0 5 -8 8 -17 7 -10 0 -17 5 -15 12 3 17
-7 15 -14 -3z m-235 -1441 c14 -3 31 -13 39 -22 7 -9 11 -11 7 -5 -4 9 -1 11
10 7 9 -4 14 -13 11 -20 -3 -7 0 -16 6 -20 7 -4 8 -3 4 4 -4 7 -4 12 1 12 15
0 56 -74 57 -102 1 -15 3 -28 6 -28 3 0 6 -9 6 -20 0 -11 -7 -20 -16 -20 -13
0 -13 -1 0 -10 13 -9 12 -12 -4 -25 -11 -8 -15 -15 -8 -15 24 0 -26 -66 -71
-94 -41 -25 -49 -27 -64 -15 -11 9 -14 10 -9 2 10 -18 -17 -21 -81 -10 -24 4
-43 12 -43 19 0 6 -3 9 -6 5 -10 -10 -65 46 -59 60 2 8 0 11 -5 8 -13 -8 -33
43 -27 67 3 10 1 15 -5 12 -6 -4 -7 8 -4 32 10 59 27 105 37 99 5 -4 9 0 9 8
0 16 68 72 76 64 3 -3 17 1 31 8 24 13 45 12 102 -1z m559 -13 c11 -14 11 -14
6 1 -6 16 -4 16 28 1 42 -20 84 -65 103 -110 18 -43 19 -83 3 -84 -10 0 -10
-2 0 -6 10 -4 10 -8 0 -21 -11 -13 -11 -14 1 -7 11 6 12 5 5 -6 -5 -8 -9 -16
-10 -19 -11 -37 -18 -50 -26 -50 -5 0 -6 5 -2 12 4 7 3 8 -5 4 -6 -4 -9 -12
-5 -17 3 -6 -3 -19 -15 -30 -23 -21 -46 -26 -35 -6 4 7 3 9 -2 4 -5 -5 -9 -14
-9 -20 0 -7 -7 -12 -15 -13 -8 0 -23 -4 -33 -9 -24 -10 -109 2 -119 18 -4 6
-8 8 -8 2 0 -5 -7 -1 -15 9 -8 11 -15 16 -15 11 0 -11 -29 21 -52 57 -13 20
-14 28 -5 31 8 4 7 6 -3 6 -19 1 -28 111 -10 111 7 0 10 6 7 13 -7 19 22 69
36 61 7 -4 9 -4 5 1 -9 9 9 35 24 35 5 0 6 -6 2 -12 -4 -8 -3 -10 2 -5 5 5 9
14 9 20 0 7 10 13 23 15 12 2 22 7 22 11 0 15 95 8 108 -8z m-888 -427 c0 -8
-4 -12 -10 -9 -5 3 -10 4 -10 1 0 -17 22 -14 28 4 8 20 10 21 24 7 9 -9 18
-13 22 -10 3 4 6 1 6 -5 0 -7 7 -12 15 -12 8 0 15 -4 15 -10 0 -5 7 -10 15
-10 8 0 15 -4 15 -10 0 -5 7 -10 15 -10 8 0 28 -8 45 -18 24 -15 27 -21 17
-31 -9 -10 -6 -10 11 0 15 9 25 10 30 4 4 -5 18 -12 32 -14 14 -1 28 -7 31
-12 3 -5 13 -7 22 -3 20 7 22 -6 5 -26 -7 -8 -3 -6 9 4 15 12 28 16 40 11 10
-5 24 -7 32 -6 8 1 18 -3 22 -11 5 -8 9 -8 9 -2 0 6 12 10 28 8 15 -2 48 -4
75 -5 26 -1 47 -7 47 -13 0 -8 2 -8 8 0 11 17 42 25 42 11 0 -8 3 -8 8 -2 8
13 22 13 41 1 9 -6 12 -5 8 1 -4 6 4 13 18 15 15 3 25 1 25 -6 0 -8 2 -8 8 0
4 6 27 16 52 23 79 21 92 26 143 58 22 14 45 22 53 19 7 -3 16 0 20 6 4 7 3 8
-4 4 -7 -4 -12 -4 -12 1 0 4 15 14 33 22 17 8 35 18 38 23 23 34 94 -9 84 -50
-6 -24 -28 -52 -40 -52 -3 0 -3 5 1 12 4 7 3 8 -4 4 -6 -4 -9 -13 -5 -21 6
-18 -13 -20 -21 -2 -3 6 -4 3 -3 -8 1 -13 -4 -20 -15 -20 -9 0 -20 -4 -25 -9
-5 -5 -2 -6 7 -2 8 4 4 -2 -9 -13 -12 -12 -27 -18 -32 -15 -5 3 -9 0 -9 -6 0
-7 -7 -10 -15 -6 -8 3 -14 0 -12 -6 1 -7 -5 -12 -13 -13 -8 0 -25 -6 -38 -13
-12 -7 -27 -10 -32 -7 -6 3 -10 1 -10 -5 0 -7 -6 -10 -14 -7 -7 3 -17 2 -22
-3 -5 -4 -29 -11 -53 -15 -35 -6 -42 -5 -37 6 5 9 2 8 -6 -1 -14 -17 -74 -21
-96 -7 -7 5 -12 5 -11 0 3 -19 -2 -23 -21 -13 -15 8 -20 8 -20 -1 0 -8 -5 -7
-17 2 -10 8 -14 9 -10 2 8 -12 -22 -11 -43 2 -6 3 -10 1 -10 -6 0 -8 -4 -8
-15 1 -8 7 -15 8 -15 3 0 -5 -29 -6 -72 -1 -116 12 -146 19 -152 34 -3 8 -11
14 -18 14 -9 0 -9 -3 2 -11 23 -16 -30 0 -57 17 -12 8 -29 14 -38 14 -8 0 -15
5 -15 11 0 5 -4 7 -10 4 -5 -3 -10 -1 -10 4 0 6 -5 10 -12 8 -7 -1 -12 3 -13
10 0 6 -4 15 -9 20 -5 5 -6 3 -2 -4 4 -7 3 -13 -3 -13 -5 0 -14 7 -19 16 -5 9
-13 16 -18 16 -5 0 -8 4 -7 9 2 4 -5 5 -14 2 -12 -5 -15 -2 -10 10 4 12 2 14
-11 10 -9 -3 -14 -3 -10 2 4 4 0 14 -8 22 -8 9 -12 23 -9 34 4 12 2 19 -6 19
-8 0 -5 7 6 20 22 24 25 25 25 4z"/>
<path d="M1156 753 c-6 -14 -5 -15 5 -6 7 7 10 15 7 18 -3 3 -9 -2 -12 -12z"/>
<path d="M947 719 c7 -7 15 -10 18 -7 3 3 -2 9 -12 12 -14 6 -15 5 -6 -5z"/>
<path d="M1086 718 c3 -5 10 -6 15 -3 13 9 11 12 -6 12 -8 0 -12 -4 -9 -9z"/>
<path d="M1755 940 c-3 -5 -1 -10 4 -10 6 0 11 5 11 10 0 6 -2 10 -4 10 -3 0
-8 -4 -11 -10z"/>
<path d="M1745 800 c-3 -6 1 -7 9 -4 18 7 21 14 7 14 -6 0 -13 -4 -16 -10z"/>
<path d="M1586 702 c-3 -4 4 -9 15 -9 23 -2 25 3 4 10 -8 4 -16 3 -19 -1z"/>
<path d="M1850 620 c0 -5 5 -10 11 -10 5 0 7 5 4 10 -3 6 -8 10 -11 10 -2 0
-4 -4 -4 -10z"/>
<path d="M735 580 c-3 -5 -1 -10 4 -10 6 0 11 5 11 10 0 6 -2 10 -4 10 -3 0
-8 -4 -11 -10z"/>
<path d="M1690 546 c0 -2 7 -7 16 -10 8 -3 12 -2 9 4 -6 10 -25 14 -25 6z"/>
<path d="M1148 373 c6 -2 18 -2 25 0 6 3 1 5 -13 5 -14 0 -19 -2 -12 -5z"/>
<path d="M2195 1531 c-3 -5 -2 -12 3 -15 5 -3 9 1 9 9 0 17 -3 19 -12 6z"/>
<path d="M2376 1362 c-3 -5 1 -9 9 -9 8 0 12 4 9 9 -3 4 -7 8 -9 8 -2 0 -6 -4
-9 -8z"/>
<path d="M16 797 c3 -10 9 -15 12 -12 3 3 0 11 -7 18 -10 9 -11 8 -5 -6z"/>
<path d="M1678 103 c7 -3 16 -2 19 1 4 3 -2 6 -13 5 -11 0 -14 -3 -6 -6z"/>
</g>
</svg>
