<svg version="1" xmlns="http://www.w3.org/2000/svg" width="933.333" height="933.333" viewBox="0 0 700.000000 700.000000"><path d="M60 39.6c0 .3 27.2 49.3 60.5 109 33.4 59.6 61.7 110.7 63.1 113.5 4.8 9.6 15.7 10.6 22.4 2.2 1.7-2.2 2-3.6 1.5-7.7-.3-2.8-2.1-30.3-4-61.1s-3.6-57.9-3.9-60.3l-.4-4.2H302l.2 265.4.3 265.5L396 531.8c51.4-71.5 94.5-131.7 95.7-133.7 2.8-4.4 2.9-6.6.5-11-2.1-3.9-7.3-7.1-11.7-7.1-1.9 0-13.9 5.9-34.6 17-17.5 9.3-32 17-32.3 17-.3 0-.6-63.7-.6-141.5V131h60.5c33.3 0 60.5.3 60.5.7 0 1.2-11.2 104.4-11.7 108.5-.4 3.1 0 4.2 2.9 7.3 2.9 3.2 4.2 3.8 8.4 4.2 7.9.8 10.6-1.1 15.8-11.5 2.4-4.8 26.9-51.6 54.5-104C631.5 83.7 654 40.4 654 39.9S532.9 39 357 39c-163.4 0-297 .2-297 .6zm551.3 30.6c-2.2 4-16 30.3-30.8 58.5s-27 51.1-27.1 51c-.1-.2 6-59.7 7.1-68l.6-4.7H389v348.1l5.3-2.9c2.8-1.6 11.7-6.4 19.7-10.7 8-4.3 17.4-9.3 20.9-11.2 3.5-2 6-2.9 5.6-2.2-.5.8-26.3 36.9-57.4 80.2l-56.6 78.8-.3-240L326 107H174v4.2c0 2.4 1.4 24.3 2.9 48.8 1.6 24.5 2.9 44.6 2.8 44.6-.2.2-78-139.3-78.5-140.6-.2-.6 94.7-1 256.8-1h257.2l-3.9 7.2z"/></svg>